<?xml version="1.0" encoding="UTF-8" standalone="no"?>
<!-- Created with Inkscape (http://www.inkscape.org/) -->

<svg
   xmlns:dc="http://purl.org/dc/elements/1.1/"
   xmlns:cc="http://creativecommons.org/ns#"
   xmlns:rdf="http://www.w3.org/1999/02/22-rdf-syntax-ns#"
   xmlns:svg="http://www.w3.org/2000/svg"
   xmlns="http://www.w3.org/2000/svg"
   xmlns:sodipodi="http://sodipodi.sourceforge.net/DTD/sodipodi-0.dtd"
   xmlns:inkscape="http://www.inkscape.org/namespaces/inkscape"
   width="210mm"
   height="297mm"
   viewBox="0 0 210 297"
   version="1.1"
   id="svg5185"
   sodipodi:docname="gear.svg"
   inkscape:version="0.92.3 (2405546, 2018-03-11)">
  <defs
     id="defs5179">
    <clipPath
       clipPathUnits="userSpaceOnUse"
       id="clipPath6752">
      <ellipse
         style="opacity:1;fill:#ff0000;stroke:none;stroke-width:1.02586126;stroke-opacity:1"
         id="ellipse6754"
         cx="359.28571"
         cy="563.94824"
         rx="297.85715"
         ry="297.14282" />
    </clipPath>
  </defs>
  <sodipodi:namedview
     id="base"
     pagecolor="#ffffff"
     bordercolor="#666666"
     borderopacity="1.0"
     inkscape:pageopacity="0.0"
     inkscape:pageshadow="2"
     inkscape:zoom="1"
     inkscape:cx="361.13957"
     inkscape:cy="588.03793"
     inkscape:document-units="mm"
     inkscape:current-layer="layer1"
     showgrid="true"
     showborder="false"
     showguides="true"
     inkscape:guide-bbox="true"
     inkscape:window-width="1278"
     inkscape:window-height="1018"
     inkscape:window-x="-7"
     inkscape:window-y="0"
     inkscape:window-maximized="0"
     inkscape:measure-start="-180,820"
     inkscape:measure-end="-185.714,827.143">
    <inkscape:grid
       type="xygrid"
       id="grid5746"
       enabled="true"
       empspacing="0"
       dotted="false" />
    <sodipodi:guide
       position="150.8125,161.39583"
       orientation="1,0"
       id="guide5822"
       inkscape:locked="false" />
    <sodipodi:guide
       position="119.0625,121.70833"
       orientation="0,1"
       id="guide5824"
       inkscape:locked="false" />
    <sodipodi:guide
       position="87.3125,153.45833"
       orientation="1,0"
       id="guide5835"
       inkscape:locked="false" />
    <sodipodi:guide
       position="103.1875,185.20833"
       orientation="0,1"
       id="guide5947"
       inkscape:locked="false" />
  </sodipodi:namedview>
  <metadata
     id="metadata5182">
    <rdf:RDF>
      <cc:Work
         rdf:about="">
        <dc:format>image/svg+xml</dc:format>
        <dc:type
           rdf:resource="http://purl.org/dc/dcmitype/StillImage" />
        <dc:title />
      </cc:Work>
    </rdf:RDF>
  </metadata>
  <g
     inkscape:label="Layer 1"
     inkscape:groupmode="layer"
     id="layer1">
    <path
       id="path5738"
       style="fill:#cccccc;stroke:none;stroke-width:0.14675336;stroke-opacity:1"
       d="m 118.73125,63.828186 a 79.57141,79.341688 0 0 0 -10.40763,0.767911 c 0.005,0.0077 0.009,0.01561 0.0145,0.02273 -0.10387,0.0038 -0.20774,0.01111 -0.31161,0.01603 a 79.57141,79.341688 0 0 0 -0.75603,0.09767 c -0.005,0.0032 -0.01,0.0065 -0.0207,0.01035 -0.008,0.01095 -0.0173,0.02098 -0.0259,0.03152 a 21.201501,21.335737 0 0 1 0.4191,4.109825 A 21.201501,21.335737 0 0 1 86.441752,90.220386 21.201501,21.335737 0 0 1 69.12291,81.147038 79.57141,79.341688 0 0 0 56.605846,93.717331 c 7.94e-4,7.94e-4 0.0055,0.0016 0.0098,0.0067 0.0036,0.0078 0.0013,0.0049 0.0031,0.0083 a 21.201501,21.335737 0 0 1 9.068708,17.485209 21.201501,21.335737 0 0 1 -21.20129,21.33617 21.201501,21.335737 0 0 1 -3.840075,-0.37828 h -0.617534 a 79.57141,79.341688 0 0 0 -0.86868,10.99468 79.57141,79.341688 0 0 0 0.821655,10.72596 21.201501,21.335737 0 0 1 4.504634,-0.51418 21.201501,21.335737 0 0 1 21.20129,21.33565 21.201501,21.335737 0 0 1 -9.357569,17.67386 79.57141,79.341688 0 0 0 12.990423,12.86174 c 0.04333,-0.02 0.09138,-0.0386 0.14211,-0.0568 a 21.201501,21.335737 0 0 1 17.357079,-9.1028 21.201501,21.335737 0 0 1 21.201293,21.33564 21.201501,21.335737 0 0 1 -0.41755,4.20647 79.57141,79.341688 0 0 0 11.128,0.87591 79.57141,79.341688 0 0 0 10.83397,-0.82837 c 5.3e-4,-2.7e-4 0.001,2.6e-4 0.002,-5.3e-4 a 21.201501,21.335737 0 0 1 0,-5.3e-4 21.201501,21.335737 0 0 1 -0.44856,-4.25297 21.201501,21.335737 0 0 1 21.20129,-21.33565 21.201501,21.335737 0 0 1 17.57774,9.43819 79.57141,79.341688 0 0 0 0.002,-0.001 79.57141,79.341688 0 0 0 13.05553,-13.0359 21.201501,21.335737 0 0 0 0.003,0.002 c -5e-5,-0.001 10e-5,-5.3e-4 0,-0.002 7.9e-4,-0.004 0.002,-0.005 0.003,-0.008 a 79.57141,79.341688 0 0 1 -0.006,0.007 v 5.3e-4 a 21.201501,21.335737 0 0 1 -9.50226,-17.77669 21.201501,21.335737 0 0 1 21.20129,-21.33565 21.201501,21.335737 0 0 1 4.81676,0.58084 79.57141,79.341688 0 0 0 0.83302,-10.79262 79.57141,79.341688 0 0 0 -0.87591,-11.17555 c -0.022,-2.5e-4 -0.0442,-0.001 -0.0661,-0.001 -0.1047,0.001 -0.19689,-0.0101 -0.27853,-0.03 a 21.201501,21.335737 0 0 1 -4.80695,0.59015 21.201501,21.335737 0 0 1 -21.2018,-21.33616 21.201501,21.335737 0 0 1 9.57667,-17.831991 c 1e-5,-5.3e-4 0,-0.0011 0,-0.0016 a 79.57141,79.341688 0 0 0 0,-5.29e-4 79.57141,79.341688 0 0 0 -12.7925,-12.515517 79.57141,79.341688 0 0 0 -5.3e-4,0 21.201501,21.335737 0 0 1 -5.3e-4,0 21.201501,21.335737 0 0 1 -17.53691,9.352402 21.201501,21.335737 0 0 1 -21.20129,-21.336164 21.201501,21.335737 0 0 1 0.42065,-4.22765 v -5.29e-4 a 79.57141,79.341688 0 0 0 -5.3e-4,0 79.57141,79.341688 0 0 0 -10.80709,-0.827857 z m -11.128,157.807414 a 79.57141,79.341688 0 0 1 -0.14004,-0.0274 c 7.9e-4,0.002 0.002,0.004 0.003,0.006 0.0426,0.0188 0.0842,0.0459 0.12351,0.0806 a 21.201501,21.335737 0 0 0 0.0139,-0.0589 z M 56.329896,192.39139 a 79.57141,79.341688 0 0 1 -0.06408,-0.0904 c -0.01013,0.0545 -0.02862,0.10909 -0.05529,0.16382 a 21.201501,21.335737 0 0 0 0.119372,-0.0734 z M 39.981541,153.89607 a 21.201501,21.335737 0 0 0 -0.03049,0.008 c 0.01093,0.002 0.02159,0.003 0.03256,0.005 a 79.57141,79.341688 0 0 1 -0.0021,-0.0129 z M 69.122913,81.147025 a 79.57141,79.341688 0 0 1 0.0072,-0.0052 c -0.004,-2.64e-4 -0.0079,-5.29e-4 -0.01188,-0.0011 a 21.201501,21.335737 0 0 0 0.0047,0.0062 z m 11.381734,-7.434689 c -0.303913,0.13121 -0.173527,0.07606 -0.147793,0.08475 a 79.57141,79.341688 0 0 1 0.147793,-0.08475 z m 87.350743,7.153569 0.002,0.0011 a 21.201501,21.335737 0 0 0 5.3e-4,-5.29e-4 c -5.3e-4,-1.03e-4 -0.001,-1.27e-4 -0.002,-5.29e-4 z m 17.24494,10.33477 a 21.201501,21.335737 0 0 0 -0.0506,0.01913 c 0.0152,0.004 0.0281,0.0067 0.0434,0.01085 0.002,-0.01 0.005,-0.01998 0.007,-0.02997 z m -4.4266,2.170409 a 21.201501,21.335737 0 0 0 -5.3e-4,5.29e-4 c 1.3e-4,0.0013 -2.7e-4,0.0029 5.3e-4,0.0041 l 5.3e-4,5.29e-4 c -9e-5,-0.0019 -5.3e-4,-0.0034 -5.3e-4,-0.0052 z m 0.18965,0.199472 v 5.29e-4 c 0.001,-1.53e-4 0.002,2.7e-5 0.004,-5.29e-4 0.001,-1.8e-4 -0.003,2.57e-4 -0.004,0 z m -0.005,0.01344 c -0.002,0.0038 -0.003,0.01098 -0.007,0.01913 l 5.3e-4,5.3e-4 c 0.001,-0.0024 0.004,-0.0058 0.005,-0.0088 7.9e-4,-0.0026 0.002,-0.0065 0.003,-0.0078 -5.3e-4,-0.0011 2.7e-4,-0.0026 -0.001,-0.0031 z m -124.463718,0.0052 c 0.0084,0.0068 0.01545,0.01455 0.02687,0.01757 -0.0021,2.64e-4 -0.0082,-2.65e-4 -0.0062,0.0011 0.0059,0.0027 0.01225,0.0045 0.0186,0.0062 a 21.201501,21.335737 0 0 0 -0.03927,-0.02479 z m 0.06253,0.03928 c 1.03e-4,5.29e-4 -2.65e-4,0.0013 5.29e-4,0.0016 0.0048,0.004 0.01058,0.0071 0.0155,0.01085 0.0011,7.93e-4 0.0021,0.0021 0.0031,0.0031 0.005,0.0029 0.03157,0.01627 0.03462,0.02273 5.29e-4,0.0013 -0.0064,-0.0013 -0.0052,-5.29e-4 0.004,0.0021 0.0087,0.003 0.01291,0.0047 0.0054,0.0021 0.01058,0.0042 0.01603,0.0067 a 21.201501,21.335737 0 0 0 -0.07752,-0.04909 z m -0.103352,0.0677 c 0.0019,0.0024 0.0034,0.0049 0.0052,0.0072 5.29e-4,-0.0011 0.0011,-0.0024 0.0016,-0.0036 -0.0019,-0.0013 -0.0043,-0.0021 -0.0062,-0.0036 z m 62.70867,18.095484 a 31.521669,31.358538 0 0 1 31.52158,31.35881 31.521669,31.358538 0 0 1 -31.52159,31.35829 31.521669,31.358538 0 0 1 -31.522106,-31.35829 31.521669,31.358538 0 0 1 31.522106,-31.3588 z m 78.79519,19.64015 c -0.002,0.0168 -0.002,0.0328 -0.004,0.0496 0.005,0.005 0.009,0.0101 0.0145,0.0145 0.002,-0.001 0.005,-0.003 0.007,-0.005 -8e-4,-0.0153 2.4e-4,-0.0297 -0.001,-0.045 -0.006,-0.005 -0.0111,-0.01 -0.0165,-0.0139 z m -0.0165,0.19637 c -0.003,0.0486 -0.003,0.0943 -10e-4,0.13591 a 21.201501,21.335737 0 0 0 0.0455,-0.014 c -5.3e-4,-0.0234 0.003,-0.0356 10e-4,-0.062 -0.0189,-0.0211 -0.0317,-0.0403 -0.0455,-0.0599 z m -0.34674,22.40225 c -0.002,7.9e-4 -0.003,0.002 -0.005,0.003 5.3e-4,-9e-5 5.3e-4,1.2e-4 0.001,0 10e-4,-5.3e-4 0.002,-0.002 0.004,-0.003 z M 50.249647,184.00896 c -0.0016,0.004 -0.0029,0.007 -0.0047,0.0108 0.0024,-0.001 0.0039,-0.002 0.0062,-0.003 z m 117.646563,21.52272 5.3e-4,5.3e-4 a 79.57141,79.341688 0 0 1 5.3e-4,-5.3e-4 z m 0.004,0.006 c 5.3e-4,5.3e-4 0.001,0.001 5.3e-4,0.003 2.6e-4,-1.5e-4 7.9e-4,-5.3e-4 10e-4,-5.3e-4 a 21.201501,21.335737 0 0 0 -0.002,-0.002 z m -0.0134,0.002 a 79.57141,79.341688 0 0 1 -5.3e-4,5.3e-4 c 2.6e-4,2.6e-4 0,-2.1e-4 0.001,5.3e-4 v -5.3e-4 z m -1.31878,0.91467 a 79.57141,79.341688 0 0 1 -5.3e-4,5.3e-4 c 5.3e-4,6e-5 0.001,-5e-5 0.002,0 -2.6e-4,-1.9e-4 -7.9e-4,2.6e-4 -0.001,-5.3e-4 z m -98.000224,0.30747 c -0.03221,0.006 -0.06436,0.0129 -0.09664,0.0191 a 21.201501,21.335737 0 0 0 -0.0186,0.0367 c 0.03852,-0.0184 0.07688,-0.0371 0.115239,-0.0558 z m -0.149862,0.12351 a 21.201501,21.335737 0 0 0 -0.0011,0.002 c 5.29e-4,-5e-5 0.0011,6e-5 0.0016,0 -2.38e-4,-8e-4 2.64e-4,-0.001 -5.29e-4,-0.002 z m 61.249486,14.94534 c -2.6e-4,2e-4 -7.9e-4,-2.6e-4 -0.001,5.3e-4 8e-4,2.6e-4 0.001,-2.6e-4 0.002,5.3e-4 -5.3e-4,-2.3e-4 -5.3e-4,-7.9e-4 -0.001,-0.001 z"
       inkscape:connector-curvature="0" />
  </g>
</svg>
