<?xml version="1.0" encoding="UTF-8" standalone="no"?>
<!-- Created with Inkscape (http://www.inkscape.org/) -->

<svg
   xmlns:dc="http://purl.org/dc/elements/1.1/"
   xmlns:cc="http://creativecommons.org/ns#"
   xmlns:rdf="http://www.w3.org/1999/02/22-rdf-syntax-ns#"
   xmlns:svg="http://www.w3.org/2000/svg"
   xmlns="http://www.w3.org/2000/svg"
   xmlns:sodipodi="http://sodipodi.sourceforge.net/DTD/sodipodi-0.dtd"
   xmlns:inkscape="http://www.inkscape.org/namespaces/inkscape"
   width="210mm"
   height="297mm"
   viewBox="0 0 210 297"
   version="1.1"
   id="svg5185"
   sodipodi:docname="gear3.svg"
   inkscape:version="0.92.3 (2405546, 2018-03-11)">
  <defs
     id="defs5179">
    <clipPath
       clipPathUnits="userSpaceOnUse"
       id="clipPath6752">
      <ellipse
         style="opacity:1;fill:#ff0000;stroke:none;stroke-width:1.02586126;stroke-opacity:1"
         id="ellipse6754"
         cx="359.28571"
         cy="563.94824"
         rx="297.85715"
         ry="297.14282" />
    </clipPath>
  </defs>
  <sodipodi:namedview
     id="base"
     pagecolor="#ffffff"
     bordercolor="#666666"
     borderopacity="1.0"
     inkscape:pageopacity="0.0"
     inkscape:pageshadow="2"
     inkscape:zoom="0.7"
     inkscape:cx="349.46602"
     inkscape:cy="646.14909"
     inkscape:document-units="mm"
     inkscape:current-layer="layer1"
     showgrid="true"
     showborder="false"
     showguides="true"
     inkscape:guide-bbox="true"
     inkscape:window-width="1278"
     inkscape:window-height="1018"
     inkscape:window-x="-7"
     inkscape:window-y="0"
     inkscape:window-maximized="0">
    <inkscape:grid
       type="xygrid"
       id="grid5746"
       enabled="true"
       empspacing="0"
       dotted="false" />
    <sodipodi:guide
       position="127,89.958334"
       orientation="1,0"
       id="guide5822"
       inkscape:locked="false" />
    <sodipodi:guide
       position="132.29167,116.41667"
       orientation="0,1"
       id="guide5824"
       inkscape:locked="false" />
    <sodipodi:guide
       position="63.5,52.916667"
       orientation="1,0"
       id="guide5835"
       inkscape:locked="false" />
    <sodipodi:guide
       position="201.08333,179.91667"
       orientation="0,1"
       id="guide5947"
       inkscape:locked="false" />
  </sodipodi:namedview>
  <metadata
     id="metadata5182">
    <rdf:RDF>
      <cc:Work
         rdf:about="">
        <dc:format>image/svg+xml</dc:format>
        <dc:type
           rdf:resource="http://purl.org/dc/dcmitype/StillImage" />
        <dc:title></dc:title>
      </cc:Work>
    </rdf:RDF>
  </metadata>
  <g
     inkscape:label="Layer 1"
     inkscape:groupmode="layer"
     id="layer1">
    <path
       style="fill:#cccccc;stroke:none;stroke-width:0.55465835;stroke-opacity:1"
       d="M 237.27539 202.66992 A 80.131761 80.639108 0 0 0 157.14258 283.30859 A 80.131761 80.639108 0 0 0 171.81836 329.65625 A 300.74234 299.8741 0 0 1 315.80273 267.64258 A 80.131761 80.639108 0 0 0 237.27539 202.66992 z M 315.80273 267.64258 A 80.131761 80.639108 0 0 1 317.40625 283.30859 A 80.131761 80.639108 0 0 1 237.27539 363.94922 A 80.131761 80.639108 0 0 1 171.81836 329.65625 A 300.74234 299.8741 0 0 0 124.5 377.17773 A 80.131761 80.639108 0 0 1 158.83398 443.30859 A 80.131761 80.639108 0 0 1 78.703125 523.94922 A 80.131761 80.639108 0 0 1 61.896484 522.11328 A 300.74234 299.8741 0 0 0 58.572266 564.07422 A 300.74234 299.8741 0 0 0 61.677734 604.61328 A 80.131761 80.639108 0 0 1 78.703125 602.66992 A 80.131761 80.639108 0 0 1 158.83398 683.30859 A 80.131761 80.639108 0 0 1 123.4668 750.10742 A 300.74234 299.8741 0 0 0 172.79492 798.90625 A 80.131761 80.639108 0 0 1 238.70312 764.09961 A 80.131761 80.639108 0 0 1 318.83398 844.73828 A 80.131761 80.639108 0 0 1 317.25586 860.63672 A 300.74234 299.8741 0 0 0 359.31445 863.94727 A 300.74234 299.8741 0 0 0 400.26758 860.81641 A 80.131761 80.639108 0 0 1 398.57227 844.73828 A 80.131761 80.639108 0 0 1 478.70312 764.09961 A 80.131761 80.639108 0 0 1 545.13867 799.77148 A 300.74234 299.8741 0 0 0 594.48828 750.49805 A 80.131761 80.639108 0 0 1 558.57227 683.30859 A 80.131761 80.639108 0 0 1 638.70312 602.66992 A 80.131761 80.639108 0 0 1 656.9082 604.86523 A 300.74234 299.8741 0 0 0 660.05664 564.07422 A 300.74234 299.8741 0 0 0 656.69727 521.46484 A 80.131761 80.639108 0 0 1 637.27539 523.94922 A 80.131761 80.639108 0 0 1 557.14258 443.30859 A 80.131761 80.639108 0 0 1 593.3418 375.91016 A 300.74234 299.8741 0 0 0 544.98633 328.59961 A 80.131761 80.639108 0 0 1 478.70312 363.94922 A 80.131761 80.639108 0 0 1 398.57227 283.30859 A 80.131761 80.639108 0 0 1 400.16211 267.32812 A 300.74234 299.8741 0 0 0 359.31445 264.19922 A 300.74234 299.8741 0 0 0 315.80273 267.64258 z M 400.16211 267.32812 A 300.74234 299.8741 0 0 1 544.98633 328.59961 A 80.131761 80.639108 0 0 0 558.83398 283.30859 A 80.131761 80.639108 0 0 0 478.70312 202.66992 A 80.131761 80.639108 0 0 0 400.16211 267.32812 z M 593.3418 375.91016 A 300.74234 299.8741 0 0 1 656.69727 521.46484 A 80.131761 80.639108 0 0 0 717.40625 443.30859 A 80.131761 80.639108 0 0 0 637.27539 362.66992 A 80.131761 80.639108 0 0 0 593.3418 375.91016 z M 656.9082 604.86523 A 300.74234 299.8741 0 0 1 594.48828 750.49805 A 80.131761 80.639108 0 0 0 638.70312 763.94922 A 80.131761 80.639108 0 0 0 718.83398 683.30859 A 80.131761 80.639108 0 0 0 656.9082 604.86523 z M 545.13867 799.77148 A 300.74234 299.8741 0 0 1 400.26758 860.81641 A 80.131761 80.639108 0 0 0 478.70312 925.37695 A 80.131761 80.639108 0 0 0 558.83398 844.73828 A 80.131761 80.639108 0 0 0 545.13867 799.77148 z M 317.25586 860.63672 A 300.74234 299.8741 0 0 1 172.79492 798.90625 A 80.131761 80.639108 0 0 0 158.57227 844.73828 A 80.131761 80.639108 0 0 0 238.70312 925.37695 A 80.131761 80.639108 0 0 0 317.25586 860.63672 z M 123.4668 750.10742 A 300.74234 299.8741 0 0 1 61.677734 604.61328 A 80.131761 80.639108 0 0 0 -1.4277344 683.30859 A 80.131761 80.639108 0 0 0 78.703125 763.94922 A 80.131761 80.639108 0 0 0 123.4668 750.10742 z M 61.896484 522.11328 A 300.74234 299.8741 0 0 1 124.5 377.17773 A 80.131761 80.639108 0 0 0 78.703125 362.66992 A 80.131761 80.639108 0 0 0 -1.4277344 443.30859 A 80.131761 80.639108 0 0 0 61.896484 522.11328 z M 360.56641 445.47852 A 119.13702 118.52046 0 0 1 479.70312 564 A 119.13702 118.52046 0 0 1 360.56641 682.51953 A 119.13702 118.52046 0 0 1 241.42773 564 A 119.13702 118.52046 0 0 1 360.56641 445.47852 z "
       transform="scale(0.26458333)"
       id="path5738"
       clip-path="url(#clipPath6752)" />
  </g>
</svg>
