<?xml version="1.0" encoding="UTF-8" standalone="no"?>
<!-- Created with Inkscape (http://www.inkscape.org/) -->

<svg
   xmlns:dc="http://purl.org/dc/elements/1.1/"
   xmlns:cc="http://creativecommons.org/ns#"
   xmlns:rdf="http://www.w3.org/1999/02/22-rdf-syntax-ns#"
   xmlns:svg="http://www.w3.org/2000/svg"
   xmlns="http://www.w3.org/2000/svg"
   xmlns:sodipodi="http://sodipodi.sourceforge.net/DTD/sodipodi-0.dtd"
   xmlns:inkscape="http://www.inkscape.org/namespaces/inkscape"
   width="210mm"
   height="297mm"
   viewBox="0 0 210 297"
   version="1.1"
   id="svg5185"
   sodipodi:docname="gear.svg"
   inkscape:version="0.92.3 (2405546, 2018-03-11)">
  <defs
     id="defs5179">
    <clipPath
       clipPathUnits="userSpaceOnUse"
       id="clipPath6752">
      <ellipse
         style="opacity:1;fill:#ff0000;stroke:none;stroke-width:1.02586126;stroke-opacity:1"
         id="ellipse6754"
         cx="359.28571"
         cy="563.94824"
         rx="297.85715"
         ry="297.14282" />
    </clipPath>
  </defs>
  <sodipodi:namedview
     id="base"
     pagecolor="#ffffff"
     bordercolor="#666666"
     borderopacity="1.0"
     inkscape:pageopacity="0.0"
     inkscape:pageshadow="2"
     inkscape:zoom="2"
     inkscape:cx="209.98257"
     inkscape:cy="808.99865"
     inkscape:document-units="mm"
     inkscape:current-layer="layer1"
     showgrid="true"
     showborder="false"
     showguides="true"
     inkscape:guide-bbox="true"
     inkscape:window-width="1278"
     inkscape:window-height="1018"
     inkscape:window-x="-7"
     inkscape:window-y="0"
     inkscape:window-maximized="0"
     inkscape:measure-start="-180,820"
     inkscape:measure-end="-185.714,827.143">
    <inkscape:grid
       type="xygrid"
       id="grid5746"
       enabled="true"
       empspacing="0"
       dotted="false" />
    <sodipodi:guide
       position="127,89.958334"
       orientation="1,0"
       id="guide5822"
       inkscape:locked="false" />
    <sodipodi:guide
       position="132.29167,116.41667"
       orientation="0,1"
       id="guide5824"
       inkscape:locked="false" />
    <sodipodi:guide
       position="63.5,52.916667"
       orientation="1,0"
       id="guide5835"
       inkscape:locked="false" />
    <sodipodi:guide
       position="201.08333,179.91667"
       orientation="0,1"
       id="guide5947"
       inkscape:locked="false" />
  </sodipodi:namedview>
  <metadata
     id="metadata5182">
    <rdf:RDF>
      <cc:Work
         rdf:about="">
        <dc:format>image/svg+xml</dc:format>
        <dc:type
           rdf:resource="http://purl.org/dc/dcmitype/StillImage" />
        <dc:title />
      </cc:Work>
    </rdf:RDF>
  </metadata>
  <g
     inkscape:label="Layer 1"
     inkscape:groupmode="layer"
     id="layer1">
    <path
       id="path5738"
       transform="scale(0.26458333)"
       style="fill:#cccccc;stroke:none;stroke-width:0.55465835;stroke-opacity:1"
       d="m 359.31445,264.19922 a 300.74234,299.8741 0 0 0 -39.33593,2.90234 c 0.0181,0.029 0.0351,0.059 0.0547,0.0859 -0.39258,0.0143 -0.78515,0.0419 -1.17773,0.0605 a 300.74234,299.8741 0 0 0 -2.85742,0.36914 c -0.0174,0.012 -0.0365,0.0246 -0.0781,0.0391 -0.0306,0.0414 -0.0652,0.0793 -0.0976,0.11914 a 80.131674,80.639021 0 0 1 1.58398,15.5332 80.131674,80.639021 0 0 1 -80.13086,80.64063 80.131674,80.639021 0 0 1 -65.45703,-34.29297 300.74234,299.8741 0 0 0 -47.30859,47.50977 c 0.003,0.003 0.0208,0.006 0.0371,0.0254 0.0134,0.0296 0.005,0.0184 0.0117,0.0312 a 80.131674,80.639021 0 0 1 34.27539,66.08593 80.131674,80.639021 0 0 1 -80.130855,80.64063 80.131674,80.639021 0 0 1 -14.513672,-1.42969 h -2.333984 a 300.74234,299.8741 0 0 0 -3.283203,41.55469 300.74234,299.8741 0 0 0 3.105468,40.53906 80.131674,80.639021 0 0 1 17.025391,-1.94336 80.131674,80.639021 0 0 1 80.130855,80.63867 80.131674,80.639021 0 0 1 -35.36718,66.79883 300.74234,299.8741 0 0 0 49.09765,48.61133 c 0.16377,-0.0756 0.34537,-0.14583 0.53711,-0.21484 a 80.131674,80.639021 0 0 1 65.60156,-34.4043 80.131674,80.639021 0 0 1 80.13086,80.63867 80.131674,80.639021 0 0 1 -1.57812,15.89844 300.74234,299.8741 0 0 0 42.05859,3.31055 300.74234,299.8741 0 0 0 40.94727,-3.13086 c 0.002,-10e-4 0.004,0.001 0.006,-0.002 a 80.131674,80.639021 0 0 1 0,-0.002 80.131674,80.639021 0 0 1 -1.69531,-16.07422 80.131674,80.639021 0 0 1 80.13085,-80.63867 80.131674,80.639021 0 0 1 66.43555,35.67187 300.74234,299.8741 0 0 0 49.34961,-49.27343 80.131674,80.639021 0 0 1 -35.91601,-67.18946 80.131674,80.639021 0 0 1 80.13085,-80.63867 80.131674,80.639021 0 0 1 18.20508,2.19531 300.74234,299.8741 0 0 0 3.14844,-40.79101 300.74234,299.8741 0 0 0 -3.31055,-42.23828 c -0.0833,-9.3e-4 -0.16665,-0.005 -0.25,-0.004 -0.3957,0.005 -0.74417,-0.0382 -1.05273,-0.11328 a 80.131674,80.639021 0 0 1 -18.16797,2.23047 80.131674,80.639021 0 0 1 -80.13281,-80.64063 80.131674,80.639021 0 0 1 36.19531,-67.39648 c 3e-5,-0.002 0,-0.004 0,-0.006 a 300.74234,299.8741 0 0 0 0,-0.002 300.74234,299.8741 0 0 0 -48.34961,-47.30274 300.74234,299.8741 0 0 0 -0.002,0 80.131674,80.639021 0 0 1 -0.002,0 80.131674,80.639021 0 0 1 -66.28126,35.34766 80.131674,80.639021 0 0 1 -80.13085,-80.64063 80.131674,80.639021 0 0 1 1.58984,-15.97851 v -0.002 a 300.74234,299.8741 0 0 0 -0.002,0 300.74234,299.8741 0 0 0 -40.84571,-3.1289 z m 235.17383,486.29883 a 80.131674,80.639021 0 0 0 0.0117,0.008 c -3.3e-4,-0.004 3.8e-4,-0.002 0,-0.006 0.003,-0.0148 0.007,-0.0175 0.01,-0.0293 a 300.74234,299.8741 0 0 1 -0.0215,0.0274 z m -49.34961,49.27343 a 300.74234,299.8741 0 0 1 -0.14258,0.0996 c 0.0133,0.005 0.0357,9.9e-4 0.0391,0.0156 0.0193,0.0935 0.0281,0.29169 0.0351,0.48633 -0.002,-0.20954 -0.009,0.074 -0.006,-0.45899 8e-5,-0.008 0.0158,-0.004 0.0195,-0.004 0.0456,-0.002 0.0911,-0.003 0.13672,-0.004 a 80.131674,80.639021 0 0 0 -0.082,-0.13477 z m -227.88281,60.86524 a 300.74234,299.8741 0 0 1 -0.5293,-0.10352 c 0.003,0.008 0.007,0.0134 0.01,0.0215 0.16105,0.0709 0.31826,0.17332 0.46679,0.30469 a 80.131674,80.639021 0 0 0 0.0527,-0.22266 z M 123.4668,750.10742 a 300.74234,299.8741 0 0 1 -0.24219,-0.3418 c -0.0383,0.2058 -0.1082,0.41233 -0.20899,0.61915 a 80.131674,80.639021 0 0 0 0.45118,-0.27735 z M 61.677734,604.61328 a 80.131674,80.639021 0 0 0 -0.115234,0.0312 c 0.04127,0.007 0.08162,0.0103 0.123047,0.0176 a 300.74234,299.8741 0 0 1 -0.0078,-0.0488 z M 171.81836,329.65625 a 300.74234,299.8741 0 0 1 0.0273,-0.0195 c -0.0151,-0.001 -0.0299,-0.002 -0.0449,-0.004 a 80.131674,80.639021 0 0 0 0.0176,0.0234 z m 43.01758,-28.09961 c -1.14865,0.49591 -0.65586,0.28734 -0.5586,0.32031 a 300.74234,299.8741 0 0 1 0.5586,-0.32031 z m 330.14258,27.03711 0.008,0.004 a 80.131674,80.639021 0 0 0 0.002,-0.002 c -0.003,-5.7e-4 -0.007,0.001 -0.01,-0.002 z m 65.17968,39.06055 a 80.131674,80.639021 0 0 0 -0.1914,0.0723 c 0.0574,0.0153 0.10608,0.0254 0.16406,0.041 0.009,-0.0377 0.0181,-0.0755 0.0273,-0.11328 z m -16.73047,8.20312 a 80.131674,80.639021 0 0 0 -0.002,0.002 c 5.1e-4,0.005 -9.5e-4,0.0111 0.002,0.0156 l 0.002,0.002 c -3.6e-4,-0.007 -0.002,-0.013 -0.002,-0.0195 z m 0.7168,0.75391 v 0.002 c 0.005,-5.8e-4 0.009,-6e-4 0.0137,-0.002 0.005,-6.8e-4 -0.0124,9.7e-4 -0.0137,0 z m -0.0195,0.0508 c -0.008,0.0144 -0.013,0.0415 -0.0273,0.0723 l 0.002,0.002 c 0.005,-0.009 0.0142,-0.0221 0.0195,-0.0332 0.003,-0.01 0.006,-0.0246 0.01,-0.0293 -0.002,-0.004 9.1e-4,-0.01 -0.004,-0.0117 z m -470.41406,0.0195 c 0.0317,0.0257 0.0584,0.055 0.10156,0.0664 -0.008,0.001 -0.031,-0.001 -0.0234,0.004 0.0224,0.0102 0.0463,0.017 0.0703,0.0234 a 80.131674,80.639021 0 0 0 -0.14844,-0.0937 z m 0.23633,0.14844 c 3.9e-4,0.002 -8.5e-4,0.005 0.002,0.006 0.0181,0.0151 0.04,0.0268 0.0586,0.041 0.004,0.003 0.006,0.008 0.01,0.0117 0.0189,0.011 0.11933,0.0615 0.13086,0.0859 0.002,0.005 -0.0225,-0.005 -0.0176,-0.002 0.0151,0.008 0.0329,0.0119 0.0488,0.0176 0.0204,0.008 0.0404,0.016 0.0605,0.0254 a 80.131674,80.639021 0 0 0 -0.29296,-0.18554 z m -0.39063,0.25586 c 0.007,0.009 0.013,0.0184 0.0195,0.0273 0.002,-0.004 0.002,-0.009 0.004,-0.0137 -0.007,-0.005 -0.0164,-0.008 -0.0234,-0.0137 z m 237.00977,68.39258 A 119.13702,118.52046 0 0 1 479.70312,564 119.13702,118.52046 0 0 1 360.56641,682.51953 119.13702,118.52046 0 0 1 241.42773,564 119.13702,118.52046 0 0 1 360.56641,445.47852 Z M 658.375,519.70898 c -0.006,0.0634 -0.008,0.12417 -0.0137,0.1875 0.0175,0.0192 0.0355,0.0381 0.0547,0.0547 0.008,-0.005 0.019,-0.0123 0.0273,-0.0176 -0.003,-0.058 -10e-5,-0.11222 -0.004,-0.16992 -0.0212,-0.0186 -0.0432,-0.0362 -0.0644,-0.0547 z m -0.0625,0.74219 c -0.0113,0.18348 -0.0128,0.3563 -0.004,0.51367 a 80.131674,80.639021 0 0 0 0.17188,-0.0527 c -0.002,-0.0884 0.01,-0.13453 0.004,-0.23438 -0.0713,-0.0797 -0.11998,-0.15234 -0.17188,-0.22656 z m -1.31055,84.66992 c -0.006,0.003 -0.0118,0.006 -0.0176,0.01 0.002,-4.1e-4 0.002,4.2e-4 0.004,0 0.004,-0.002 0.008,-0.006 0.0137,-0.01 z M 27.441406,626.56445 c -0.01191,0.007 -0.02326,0.0129 -0.03516,0.0195 0.01952,-9.2e-4 0.03908,0.001 0.05859,-0.002 -0.0078,-0.006 -0.01567,-0.0117 -0.02344,-0.0176 z m 674.429684,69.26367 c 0.005,0.0295 0.0105,0.0602 0.0156,0.0898 0.0133,-0.0269 0.0278,-0.0532 0.041,-0.0801 -0.0189,-0.004 -0.0377,-0.006 -0.0566,-0.01 z m -83.21289,19.72266 c -0.0298,0.0185 -0.0481,0.0632 -0.0547,0.14258 -0.0844,1.015 1.18252,1.85081 2.27343,2.43555 -0.25168,-0.39197 -0.62071,-0.72253 -0.92773,-1.07618 -0.3657,-0.42122 -1.08242,-1.63148 -1.29102,-1.50195 z m -518.17187,2.875 c -0.006,0.0134 -0.0114,0.0276 -0.0176,0.041 0.009,-0.004 0.0149,-0.006 0.0234,-0.01 z m 520.78515,0.77734 c -0.0975,0.0569 -0.18658,0.12312 -0.26171,0.20899 -0.0179,0.0204 0.0854,0.077 0.23632,0.15625 0.0154,-0.0984 0.0284,-0.19574 0.0449,-0.29492 -0.007,-0.0234 -0.0127,-0.0469 -0.0195,-0.0703 z m -81.1582,84.05469 a 300.74234,299.8741 0 0 1 -0.002,0.002 c 0.002,1.8e-4 0.004,-1.9e-4 0.006,0 -0.001,-7.3e-4 -0.003,0.001 -0.004,-0.002 z m -370.39453,1.16211 c -0.12175,0.024 -0.2432,0.0489 -0.36523,0.0723 a 80.131674,80.639021 0 0 0 -0.0703,0.13867 c 0.1456,-0.0695 0.29056,-0.14023 0.43555,-0.21094 z m -0.56641,0.4668 a 80.131674,80.639021 0 0 0 -0.004,0.008 c 0.002,-1.9e-4 0.004,2e-4 0.006,0 -9e-4,-0.003 0.001,-0.005 -0.002,-0.008 z m 303.15821,46.87305 c -0.0615,0.0324 -0.0927,0.0443 -0.15625,0.0781 -0.0225,0.047 -0.0544,0.11263 -0.082,0.16992 0.0687,-0.0351 0.11495,-0.0544 0.18164,-0.0879 0.0145,-0.0477 0.0386,-0.10729 0.0566,-0.16015 z m -71.66407,9.61328 c -10e-4,7.5e-4 -0.003,-0.001 -0.004,0.002 0.003,10e-4 0.005,-0.001 0.008,0.002 -0.002,-10e-4 -0.002,-0.003 -0.004,-0.004 z m 89.71875,22.95898 c 0.01,0.46186 0.01,1.13754 0.0137,1.74609 0.0954,-0.1507 0.18555,-0.30217 0.28711,-0.45312 0.0742,-0.23325 0.15186,-0.46529 0.22851,-0.69727 -0.20148,0.005 -0.3814,-0.16826 -0.5293,-0.5957 z" />
  </g>
</svg>
